<svg width="25" height="25" viewBox="0 0 25 25" fill="none" xmlns="http://www.w3.org/2000/svg">
<path d="M12.125 6.4C13.285 6.4 14.225 7.34 14.225 8.5C14.225 9.66 13.285 10.6 12.125 10.6C10.965 10.6 10.025 9.66 10.025 8.5C10.025 7.34 10.965 6.4 12.125 6.4ZM12.125 15.4C15.095 15.4 18.225 16.86 18.225 17.5V18.6H6.025V17.5C6.025 16.86 9.155 15.4 12.125 15.4ZM12.125 4.5C9.915 4.5 8.125 6.29 8.125 8.5C8.125 10.71 9.915 12.5 12.125 12.5C14.335 12.5 16.125 10.71 16.125 8.5C16.125 6.29 14.335 4.5 12.125 4.5ZM12.125 13.5C9.455 13.5 4.125 14.84 4.125 17.5V20.5H20.125V17.5C20.125 14.84 14.795 13.5 12.125 13.5Z" fill="#6739C6"/>
</svg>
