<svg width="33" height="32" viewBox="0 0 33 32" fill="none" xmlns="http://www.w3.org/2000/svg">
<path d="M4.83337 14.6667H15.5V4H4.83337V14.6667ZM7.50004 6.66667H12.8334V12H7.50004V6.66667Z" fill="black"/>
<path d="M4.83337 28H15.5V17.3333H4.83337V28ZM7.50004 20H12.8334V25.3333H7.50004V20Z" fill="black"/>
<path d="M18.1667 4V14.6667H28.8334V4H18.1667ZM26.1667 12H20.8334V6.66667H26.1667V12Z" fill="black"/>
<path d="M28.8334 25.3333H26.1667V28H28.8334V25.3333Z" fill="black"/>
<path d="M20.8334 17.3333H18.1667V20H20.8334V17.3333Z" fill="black"/>
<path d="M23.5 20H20.8334V22.6667H23.5V20Z" fill="black"/>
<path d="M20.8334 22.6667H18.1667V25.3333H20.8334V22.6667Z" fill="black"/>
<path d="M23.5 25.3333H20.8334V28H23.5V25.3333Z" fill="black"/>
<path d="M26.1667 22.6667H23.5V25.3333H26.1667V22.6667Z" fill="black"/>
<path d="M26.1667 17.3333H23.5V20H26.1667V17.3333Z" fill="black"/>
<path d="M28.8334 20H26.1667V22.6667H28.8334V20Z" fill="black"/>
</svg>
