<svg width="24" height="24" viewBox="0 0 24 24" fill="none" xmlns="http://www.w3.org/2000/svg">
<path d="M4 6.00064H2V22L18 22.0006V20.0006H4V6.00064ZM22 2L6 2.00061V18.0006H22V2ZM20 16.0006H8V4.00064H20V16.0006ZM13.51 10.1606C13.92 9.43064 14.69 9.00064 15.14 8.36064C15.62 7.68064 15.35 6.42064 14 6.42064C13.12 6.42064 12.68 7.09064 12.5 7.65064L11.13 7.08064C11.51 5.96064 12.52 5.00064 13.99 5.00064C15.22 5.00064 16.07 5.56064 16.5 6.26064C16.87 6.86064 17.08 7.99064 16.51 8.83064C15.88 9.76064 15.28 10.0406 14.95 10.6406C14.82 10.8806 14.77 11.0406 14.77 11.8206H13.25C13.26 11.4106 13.19 10.7406 13.51 10.1606ZM12.95 13.9506C12.95 13.3606 13.42 12.9106 14 12.9106C14.59 12.9106 15.04 13.3606 15.04 13.9506C15.04 14.5306 14.6 15.0006 14 15.0006C13.42 15.0006 12.95 14.5306 12.95 13.9506Z" fill="#6739C6"/>
</svg>
