<svg width="31" height="32" viewBox="0 0 31 32" fill="none" xmlns="http://www.w3.org/2000/svg">
<path d="M0 14C0 12.9391 0 10 0 10C0 10 2.84729 10 3.875 10H27.125C28.1527 10 31 10 31 10C31 10 31 12.9391 31 14V18C31 19.0609 31 22 31 22C31 22 28.1527 22 27.125 22H3.875C2.84729 22 0 22 0 22C0 22 0 19.0609 0 18V14ZM11.625 20H19.375V12H11.625V20ZM29.0625 18V14C29.0625 13.4696 29.0625 12 29.0625 12C29.0625 12 27.6389 12 27.125 12H21.3125V20H27.125C27.6389 20 29.0625 20 29.0625 20C29.0625 20 29.0625 18.5304 29.0625 18Z" fill="black"/>
</svg>
