<svg width="24" height="25" viewBox="0 0 24 25" fill="none" xmlns="http://www.w3.org/2000/svg">
<g clip-path="url(#clip0_3274_22347)">
<path d="M6 13.2861C5.45 13.2861 5 13.7361 5 14.2861C5 14.8361 5.45 15.2861 6 15.2861C6.55 15.2861 7 14.8361 7 14.2861C7 13.7361 6.55 13.2861 6 13.2861ZM6 17.2861C5.45 17.2861 5 17.7361 5 18.2861C5 18.8361 5.45 19.2861 6 19.2861C6.55 19.2861 7 18.8361 7 18.2861C7 17.7361 6.55 17.2861 6 17.2861ZM6 9.28613C5.45 9.28613 5 9.73613 5 10.2861C5 10.8361 5.45 11.2861 6 11.2861C6.55 11.2861 7 10.8361 7 10.2861C7 9.73613 6.55 9.28613 6 9.28613ZM3 9.78613C2.72 9.78613 2.5 10.0061 2.5 10.2861C2.5 10.5661 2.72 10.7861 3 10.7861C3.28 10.7861 3.5 10.5661 3.5 10.2861C3.5 10.0061 3.28 9.78613 3 9.78613ZM6 5.28613C5.45 5.28613 5 5.73613 5 6.28613C5 6.83613 5.45 7.28613 6 7.28613C6.55 7.28613 7 6.83613 7 6.28613C7 5.73613 6.55 5.28613 6 5.28613ZM21 10.7861C21.28 10.7861 21.5 10.5661 21.5 10.2861C21.5 10.0061 21.28 9.78613 21 9.78613C20.72 9.78613 20.5 10.0061 20.5 10.2861C20.5 10.5661 20.72 10.7861 21 10.7861ZM14 7.28613C14.55 7.28613 15 6.83613 15 6.28613C15 5.73613 14.55 5.28613 14 5.28613C13.45 5.28613 13 5.73613 13 6.28613C13 6.83613 13.45 7.28613 14 7.28613ZM14 3.78613C14.28 3.78613 14.5 3.56613 14.5 3.28613C14.5 3.00613 14.28 2.78613 14 2.78613C13.72 2.78613 13.5 3.00613 13.5 3.28613C13.5 3.56613 13.72 3.78613 14 3.78613ZM3 13.7861C2.72 13.7861 2.5 14.0061 2.5 14.2861C2.5 14.5661 2.72 14.7861 3 14.7861C3.28 14.7861 3.5 14.5661 3.5 14.2861C3.5 14.0061 3.28 13.7861 3 13.7861ZM10 20.7861C9.72 20.7861 9.5 21.0061 9.5 21.2861C9.5 21.5661 9.72 21.7861 10 21.7861C10.28 21.7861 10.5 21.5661 10.5 21.2861C10.5 21.0061 10.28 20.7861 10 20.7861ZM10 3.78613C10.28 3.78613 10.5 3.56613 10.5 3.28613C10.5 3.00613 10.28 2.78613 10 2.78613C9.72 2.78613 9.5 3.00613 9.5 3.28613C9.5 3.56613 9.72 3.78613 10 3.78613ZM10 7.28613C10.55 7.28613 11 6.83613 11 6.28613C11 5.73613 10.55 5.28613 10 5.28613C9.45 5.28613 9 5.73613 9 6.28613C9 6.83613 9.45 7.28613 10 7.28613ZM10 12.7861C9.17 12.7861 8.5 13.4561 8.5 14.2861C8.5 15.1161 9.17 15.7861 10 15.7861C10.83 15.7861 11.5 15.1161 11.5 14.2861C11.5 13.4561 10.83 12.7861 10 12.7861ZM18 13.2861C17.45 13.2861 17 13.7361 17 14.2861C17 14.8361 17.45 15.2861 18 15.2861C18.55 15.2861 19 14.8361 19 14.2861C19 13.7361 18.55 13.2861 18 13.2861ZM18 17.2861C17.45 17.2861 17 17.7361 17 18.2861C17 18.8361 17.45 19.2861 18 19.2861C18.55 19.2861 19 18.8361 19 18.2861C19 17.7361 18.55 17.2861 18 17.2861ZM18 9.28613C17.45 9.28613 17 9.73613 17 10.2861C17 10.8361 17.45 11.2861 18 11.2861C18.55 11.2861 19 10.8361 19 10.2861C19 9.73613 18.55 9.28613 18 9.28613ZM18 5.28613C17.45 5.28613 17 5.73613 17 6.28613C17 6.83613 17.45 7.28613 18 7.28613C18.55 7.28613 19 6.83613 19 6.28613C19 5.73613 18.55 5.28613 18 5.28613ZM21 13.7861C20.72 13.7861 20.5 14.0061 20.5 14.2861C20.5 14.5661 20.72 14.7861 21 14.7861C21.28 14.7861 21.5 14.5661 21.5 14.2861C21.5 14.0061 21.28 13.7861 21 13.7861ZM14 17.2861C13.45 17.2861 13 17.7361 13 18.2861C13 18.8361 13.45 19.2861 14 19.2861C14.55 19.2861 15 18.8361 15 18.2861C15 17.7361 14.55 17.2861 14 17.2861ZM14 20.7861C13.72 20.7861 13.5 21.0061 13.5 21.2861C13.5 21.5661 13.72 21.7861 14 21.7861C14.28 21.7861 14.5 21.5661 14.5 21.2861C14.5 21.0061 14.28 20.7861 14 20.7861ZM10 8.78613C9.17 8.78613 8.5 9.45613 8.5 10.2861C8.5 11.1161 9.17 11.7861 10 11.7861C10.83 11.7861 11.5 11.1161 11.5 10.2861C11.5 9.45613 10.83 8.78613 10 8.78613ZM10 17.2861C9.45 17.2861 9 17.7361 9 18.2861C9 18.8361 9.45 19.2861 10 19.2861C10.55 19.2861 11 18.8361 11 18.2861C11 17.7361 10.55 17.2861 10 17.2861ZM14 12.7861C13.17 12.7861 12.5 13.4561 12.5 14.2861C12.5 15.1161 13.17 15.7861 14 15.7861C14.83 15.7861 15.5 15.1161 15.5 14.2861C15.5 13.4561 14.83 12.7861 14 12.7861ZM14 8.78613C13.17 8.78613 12.5 9.45613 12.5 10.2861C12.5 11.1161 13.17 11.7861 14 11.7861C14.83 11.7861 15.5 11.1161 15.5 10.2861C15.5 9.45613 14.83 8.78613 14 8.78613Z" fill="white"/>
</g>
<defs>
<clipPath id="clip0_3274_22347">
<rect width="24" height="24" fill="white" transform="translate(0 0.286133)"/>
</clipPath>
</defs>
</svg>
