<svg width="24" height="25" viewBox="0 0 24 25" fill="none" xmlns="http://www.w3.org/2000/svg">
<path d="M10 9.28613C9.45 9.28613 9 9.73613 9 10.2861C9 10.8361 9.45 11.2861 10 11.2861C10.55 11.2861 11 10.8361 11 10.2861C11 9.73613 10.55 9.28613 10 9.28613ZM10 13.2861C9.45 13.2861 9 13.7361 9 14.2861C9 14.8361 9.45 15.2861 10 15.2861C10.55 15.2861 11 14.8361 11 14.2861C11 13.7361 10.55 13.2861 10 13.2861ZM7 9.78613C6.72 9.78613 6.5 10.0061 6.5 10.2861C6.5 10.5661 6.72 10.7861 7 10.7861C7.28 10.7861 7.5 10.5661 7.5 10.2861C7.5 10.0061 7.28 9.78613 7 9.78613ZM10 16.7861C9.72 16.7861 9.5 17.0061 9.5 17.2861C9.5 17.5661 9.72 17.7861 10 17.7861C10.28 17.7861 10.5 17.5661 10.5 17.2861C10.5 17.0061 10.28 16.7861 10 16.7861ZM7 13.7861C6.72 13.7861 6.5 14.0061 6.5 14.2861C6.5 14.5661 6.72 14.7861 7 14.7861C7.28 14.7861 7.5 14.5661 7.5 14.2861C7.5 14.0061 7.28 13.7861 7 13.7861ZM10 7.78613C10.28 7.78613 10.5 7.56613 10.5 7.28613C10.5 7.00613 10.28 6.78613 10 6.78613C9.72 6.78613 9.5 7.00613 9.5 7.28613C9.5 7.56613 9.72 7.78613 10 7.78613ZM14 9.28613C13.45 9.28613 13 9.73613 13 10.2861C13 10.8361 13.45 11.2861 14 11.2861C14.55 11.2861 15 10.8361 15 10.2861C15 9.73613 14.55 9.28613 14 9.28613ZM14 7.78613C14.28 7.78613 14.5 7.56613 14.5 7.28613C14.5 7.00613 14.28 6.78613 14 6.78613C13.72 6.78613 13.5 7.00613 13.5 7.28613C13.5 7.56613 13.72 7.78613 14 7.78613ZM17 13.7861C16.72 13.7861 16.5 14.0061 16.5 14.2861C16.5 14.5661 16.72 14.7861 17 14.7861C17.28 14.7861 17.5 14.5661 17.5 14.2861C17.5 14.0061 17.28 13.7861 17 13.7861ZM17 9.78613C16.72 9.78613 16.5 10.0061 16.5 10.2861C16.5 10.5661 16.72 10.7861 17 10.7861C17.28 10.7861 17.5 10.5661 17.5 10.2861C17.5 10.0061 17.28 9.78613 17 9.78613ZM12 2.28613C6.48 2.28613 2 6.76613 2 12.2861C2 17.8061 6.48 22.2861 12 22.2861C17.52 22.2861 22 17.8061 22 12.2861C22 6.76613 17.52 2.28613 12 2.28613ZM12 20.2861C7.58 20.2861 4 16.7061 4 12.2861C4 7.86613 7.58 4.28613 12 4.28613C16.42 4.28613 20 7.86613 20 12.2861C20 16.7061 16.42 20.2861 12 20.2861ZM14 16.7861C13.72 16.7861 13.5 17.0061 13.5 17.2861C13.5 17.5661 13.72 17.7861 14 17.7861C14.28 17.7861 14.5 17.5661 14.5 17.2861C14.5 17.0061 14.28 16.7861 14 16.7861ZM14 13.2861C13.45 13.2861 13 13.7361 13 14.2861C13 14.8361 13.45 15.2861 14 15.2861C14.55 15.2861 15 14.8361 15 14.2861C15 13.7361 14.55 13.2861 14 13.2861Z" fill="black"/>
</svg>
