<svg width="16" height="17" viewBox="0 0 16 17" fill="none" xmlns="http://www.w3.org/2000/svg">
<path d="M8.00016 1.61963C4.32016 1.61963 1.3335 4.6063 1.3335 8.2863C1.3335 11.9663 4.32016 14.953 8.00016 14.953C11.6802 14.953 14.6668 11.9663 14.6668 8.2863C14.6668 4.6063 11.6802 1.61963 8.00016 1.61963ZM8.00016 13.6196C5.06016 13.6196 2.66683 11.2263 2.66683 8.2863C2.66683 7.53963 2.82016 6.83296 3.10016 6.1863C3.16016 6.2463 3.24016 6.2863 3.3335 6.2863C3.52016 6.2863 3.66683 6.13963 3.66683 5.95296C3.66683 5.7863 3.54016 5.65296 3.38016 5.6263C3.48016 5.45296 3.5935 5.2863 3.70683 5.1263C3.68683 5.17963 3.66683 5.2263 3.66683 5.2863C3.66683 5.47296 3.8135 5.61963 4.00016 5.61963C4.18683 5.61963 4.3335 5.47296 4.3335 5.2863C4.3335 5.09963 4.18683 4.95296 4.00016 4.95296C3.9135 4.95296 3.8335 4.9863 3.7735 5.03963C4.12016 4.5863 4.54016 4.1863 5.0135 3.8663C5.00683 3.89296 5.00016 3.91963 5.00016 3.95296C5.00016 4.13963 5.14683 4.2863 5.3335 4.2863C5.52016 4.2863 5.66683 4.13963 5.66683 3.95296C5.66683 3.79296 5.5535 3.6663 5.40016 3.63296C5.50683 3.57296 5.6135 3.51963 5.72683 3.4663C5.78683 3.55963 5.88683 3.61963 6.00016 3.61963C6.18683 3.61963 6.3335 3.47296 6.3335 3.2863C6.3335 3.2663 6.32683 3.2463 6.32016 3.2263C6.58016 3.13963 6.84683 3.07296 7.12683 3.0263C7.0535 3.09296 7.00016 3.17963 7.00016 3.2863C7.00016 3.47296 7.14683 3.61963 7.3335 3.61963C7.52016 3.61963 7.66683 3.47296 7.66683 3.2863C7.66683 3.1463 7.58016 3.03296 7.46683 2.97963C7.64016 2.95963 7.82016 2.95296 8.00016 2.95296C8.18016 2.95296 8.36016 2.95963 8.5335 2.97963C8.4135 3.03296 8.3335 3.1463 8.3335 3.2863C8.3335 3.47296 8.48016 3.61963 8.66683 3.61963C8.8535 3.61963 9.00016 3.47296 9.00016 3.2863C9.00016 3.17963 8.94683 3.09296 8.8735 3.03296C9.14683 3.07963 9.42016 3.1463 9.68016 3.23296C9.6735 3.2463 9.66683 3.2663 9.66683 3.2863C9.66683 3.47296 9.8135 3.61963 10.0002 3.61963C10.1135 3.61963 10.2135 3.55963 10.2735 3.4663C10.3868 3.51963 10.4935 3.57296 10.6002 3.63296C10.4468 3.6663 10.3335 3.79296 10.3335 3.95296C10.3335 4.13963 10.4802 4.2863 10.6668 4.2863C10.8535 4.2863 11.0002 4.13963 11.0002 3.95296C11.0002 3.91963 10.9935 3.89296 10.9802 3.8663C11.4535 4.1863 11.8735 4.5863 12.2202 5.03963C12.1668 4.9863 12.0868 4.95296 12.0002 4.95296C11.8135 4.95296 11.6668 5.09963 11.6668 5.2863C11.6668 5.47296 11.8135 5.61963 12.0002 5.61963C12.1868 5.61963 12.3335 5.47296 12.3335 5.2863C12.3335 5.2263 12.3135 5.17963 12.2868 5.13296C12.4068 5.29296 12.5135 5.45963 12.6135 5.63296C12.4602 5.65296 12.3335 5.7863 12.3335 5.95296C12.3335 6.13963 12.4802 6.2863 12.6668 6.2863C12.7602 6.2863 12.8402 6.2463 12.9002 6.1863C13.1802 6.83296 13.3335 7.53963 13.3335 8.2863C13.3335 11.2263 10.9402 13.6196 8.00016 13.6196Z" fill="black"/>
<path d="M6.00016 9.7863C6.4604 9.7863 6.8335 9.4132 6.8335 8.95296C6.8335 8.49273 6.4604 8.11963 6.00016 8.11963C5.53993 8.11963 5.16683 8.49273 5.16683 8.95296C5.16683 9.4132 5.53993 9.7863 6.00016 9.7863Z" fill="black"/>
<path d="M8.00016 4.2863C8.18426 4.2863 8.3335 4.13706 8.3335 3.95296C8.3335 3.76887 8.18426 3.61963 8.00016 3.61963C7.81607 3.61963 7.66683 3.76887 7.66683 3.95296C7.66683 4.13706 7.81607 4.2863 8.00016 4.2863Z" fill="black"/>
<path d="M9.3335 4.2863C9.51759 4.2863 9.66683 4.13706 9.66683 3.95296C9.66683 3.76887 9.51759 3.61963 9.3335 3.61963C9.1494 3.61963 9.00016 3.76887 9.00016 3.95296C9.00016 4.13706 9.1494 4.2863 9.3335 4.2863Z" fill="black"/>
<path d="M6.66683 4.2863C6.85092 4.2863 7.00016 4.13706 7.00016 3.95296C7.00016 3.76887 6.85092 3.61963 6.66683 3.61963C6.48273 3.61963 6.3335 3.76887 6.3335 3.95296C6.3335 4.13706 6.48273 4.2863 6.66683 4.2863Z" fill="black"/>
<path d="M11.3335 4.95296C11.5176 4.95296 11.6668 4.80372 11.6668 4.61963C11.6668 4.43553 11.5176 4.2863 11.3335 4.2863C11.1494 4.2863 11.0002 4.43553 11.0002 4.61963C11.0002 4.80372 11.1494 4.95296 11.3335 4.95296Z" fill="black"/>
<path d="M6.00016 4.95296C6.18426 4.95296 6.3335 4.80372 6.3335 4.61963C6.3335 4.43553 6.18426 4.2863 6.00016 4.2863C5.81607 4.2863 5.66683 4.43553 5.66683 4.61963C5.66683 4.80372 5.81607 4.95296 6.00016 4.95296Z" fill="black"/>
<path d="M4.66683 4.95296C4.85092 4.95296 5.00016 4.80372 5.00016 4.61963C5.00016 4.43553 4.85092 4.2863 4.66683 4.2863C4.48273 4.2863 4.3335 4.43553 4.3335 4.61963C4.3335 4.80372 4.48273 4.95296 4.66683 4.95296Z" fill="black"/>
<path d="M7.3335 4.95296C7.51759 4.95296 7.66683 4.80372 7.66683 4.61963C7.66683 4.43553 7.51759 4.2863 7.3335 4.2863C7.1494 4.2863 7.00016 4.43553 7.00016 4.61963C7.00016 4.80372 7.1494 4.95296 7.3335 4.95296Z" fill="black"/>
<path d="M8.66683 4.95296C8.85092 4.95296 9.00016 4.80372 9.00016 4.61963C9.00016 4.43553 8.85092 4.2863 8.66683 4.2863C8.48273 4.2863 8.3335 4.43553 8.3335 4.61963C8.3335 4.80372 8.48273 4.95296 8.66683 4.95296Z" fill="black"/>
<path d="M10.0002 4.95296C10.1843 4.95296 10.3335 4.80372 10.3335 4.61963C10.3335 4.43553 10.1843 4.2863 10.0002 4.2863C9.81607 4.2863 9.66683 4.43553 9.66683 4.61963C9.66683 4.80372 9.81607 4.95296 10.0002 4.95296Z" fill="black"/>
<path d="M8.00016 5.61963C8.18426 5.61963 8.3335 5.47039 8.3335 5.2863C8.3335 5.1022 8.18426 4.95296 8.00016 4.95296C7.81607 4.95296 7.66683 5.1022 7.66683 5.2863C7.66683 5.47039 7.81607 5.61963 8.00016 5.61963Z" fill="black"/>
<path d="M9.3335 5.61963C9.51759 5.61963 9.66683 5.47039 9.66683 5.2863C9.66683 5.1022 9.51759 4.95296 9.3335 4.95296C9.1494 4.95296 9.00016 5.1022 9.00016 5.2863C9.00016 5.47039 9.1494 5.61963 9.3335 5.61963Z" fill="black"/>
<path d="M10.6668 5.61963C10.8509 5.61963 11.0002 5.47039 11.0002 5.2863C11.0002 5.1022 10.8509 4.95296 10.6668 4.95296C10.4827 4.95296 10.3335 5.1022 10.3335 5.2863C10.3335 5.47039 10.4827 5.61963 10.6668 5.61963Z" fill="black"/>
<path d="M6.66683 5.61963C6.85092 5.61963 7.00016 5.47039 7.00016 5.2863C7.00016 5.1022 6.85092 4.95296 6.66683 4.95296C6.48273 4.95296 6.3335 5.1022 6.3335 5.2863C6.3335 5.47039 6.48273 5.61963 6.66683 5.61963Z" fill="black"/>
<path d="M5.3335 5.61963C5.51759 5.61963 5.66683 5.47039 5.66683 5.2863C5.66683 5.1022 5.51759 4.95296 5.3335 4.95296C5.1494 4.95296 5.00016 5.1022 5.00016 5.2863C5.00016 5.47039 5.1494 5.61963 5.3335 5.61963Z" fill="black"/>
<path d="M6.00016 6.2863C6.18426 6.2863 6.3335 6.13706 6.3335 5.95296C6.3335 5.76887 6.18426 5.61963 6.00016 5.61963C5.81607 5.61963 5.66683 5.76887 5.66683 5.95296C5.66683 6.13706 5.81607 6.2863 6.00016 6.2863Z" fill="black"/>
<path d="M4.66683 6.2863C4.85092 6.2863 5.00016 6.13706 5.00016 5.95296C5.00016 5.76887 4.85092 5.61963 4.66683 5.61963C4.48273 5.61963 4.3335 5.76887 4.3335 5.95296C4.3335 6.13706 4.48273 6.2863 4.66683 6.2863Z" fill="black"/>
<path d="M7.3335 6.2863C7.51759 6.2863 7.66683 6.13706 7.66683 5.95296C7.66683 5.76887 7.51759 5.61963 7.3335 5.61963C7.1494 5.61963 7.00016 5.76887 7.00016 5.95296C7.00016 6.13706 7.1494 6.2863 7.3335 6.2863Z" fill="black"/>
<path d="M8.66683 6.2863C8.85092 6.2863 9.00016 6.13706 9.00016 5.95296C9.00016 5.76887 8.85092 5.61963 8.66683 5.61963C8.48273 5.61963 8.3335 5.76887 8.3335 5.95296C8.3335 6.13706 8.48273 6.2863 8.66683 6.2863Z" fill="black"/>
<path d="M10.0002 6.2863C10.1843 6.2863 10.3335 6.13706 10.3335 5.95296C10.3335 5.76887 10.1843 5.61963 10.0002 5.61963C9.81607 5.61963 9.66683 5.76887 9.66683 5.95296C9.66683 6.13706 9.81607 6.2863 10.0002 6.2863Z" fill="black"/>
<path d="M11.3335 6.2863C11.5176 6.2863 11.6668 6.13706 11.6668 5.95296C11.6668 5.76887 11.5176 5.61963 11.3335 5.61963C11.1494 5.61963 11.0002 5.76887 11.0002 5.95296C11.0002 6.13706 11.1494 6.2863 11.3335 6.2863Z" fill="black"/>
<path d="M10.0002 9.7863C10.4604 9.7863 10.8335 9.4132 10.8335 8.95296C10.8335 8.49273 10.4604 8.11963 10.0002 8.11963C9.53993 8.11963 9.16683 8.49273 9.16683 8.95296C9.16683 9.4132 9.53993 9.7863 10.0002 9.7863Z" fill="black"/>
</svg>
