<svg width="24" height="24" viewBox="0 0 24 24" fill="none" xmlns="http://www.w3.org/2000/svg">
<path d="M5 15H3V21H9V19H5V15ZM5 5H9V3H3V9H5V5ZM21 3H15V5H19V9H21V3ZM19 19H15V21H21V15H19V19Z" fill="#7622FF"/>
<path d="M10.8639 15.9073C11.3101 15.7456 11.6585 15.3797 11.6585 14.8106C11.6585 12.8858 11.891 11.6684 12.411 10.7431C12.9276 9.82397 13.7419 9.17343 14.9044 8.3886C14.9759 8.34025 15.0144 8.25713 14.9953 8.1726C14.9691 8.05583 14.8431 7.98063 14.7141 8.00438C12.8373 8.35382 11.4098 9.05412 10.4473 10.174C9.48797 11.2902 9.00017 12.8132 9.00017 14.8106C9.00017 15.3803 9.34891 15.7464 9.79484 15.9075C9.96514 15.9692 10.1483 16 10.3295 16C10.5108 16 10.6936 15.9689 10.8639 15.9073Z" fill="#7622FF"/>
</svg>
