<svg width="25" height="25" viewBox="0 0 25 25" fill="none" xmlns="http://www.w3.org/2000/svg">
<g clip-path="url(#clip0_3373_1760)">
<path d="M12.5 15.2861C14.1569 15.2861 15.5 13.943 15.5 12.2861C15.5 10.6293 14.1569 9.28613 12.5 9.28613C10.8431 9.28613 9.5 10.6293 9.5 12.2861C9.5 13.943 10.8431 15.2861 12.5 15.2861Z" fill="#7622FF"/>
<path d="M9.5 2.28613L7.67 4.28613H2.5V20.2861H22.5V4.28613H17.33L15.5 2.28613H9.5ZM12.5 17.2861C9.74 17.2861 7.5 15.0461 7.5 12.2861C7.5 9.52613 9.74 7.28613 12.5 7.28613C15.26 7.28613 17.5 9.52613 17.5 12.2861C17.5 15.0461 15.26 17.2861 12.5 17.2861Z" fill="#7622FF"/>
</g>
<defs>
<clipPath id="clip0_3373_1760">
<rect width="24" height="24" fill="white" transform="translate(0.5 0.286133)"/>
</clipPath>
</defs>
</svg>
