<svg width="32" height="32" viewBox="0 0 32 32" fill="none" xmlns="http://www.w3.org/2000/svg">
<path d="M23.9997 10.6668C25.4663 10.6668 26.6663 9.46683 26.6663 8.00016C26.6663 6.5335 25.4663 5.3335 23.9997 5.3335C22.533 5.3335 21.333 6.5335 21.333 8.00016C21.333 9.46683 22.533 10.6668 23.9997 10.6668ZM23.9997 21.3335C25.4663 21.3335 26.6663 20.1335 26.6663 18.6668C26.6663 17.2002 25.4663 16.0002 23.9997 16.0002C22.533 16.0002 21.333 17.2002 21.333 18.6668C21.333 20.1335 22.533 21.3335 23.9997 21.3335ZM7.99967 10.6668C6.53301 10.6668 5.33301 11.8668 5.33301 13.3335C5.33301 14.8002 6.53301 16.0002 7.99967 16.0002C9.46634 16.0002 10.6663 14.8002 10.6663 13.3335C10.6663 11.8668 9.46634 10.6668 7.99967 10.6668ZM18.6663 10.6668C17.1997 10.6668 15.9997 11.8668 15.9997 13.3335C15.9997 14.8002 17.1997 16.0002 18.6663 16.0002C20.133 16.0002 21.333 14.8002 21.333 13.3335C21.333 11.8668 20.133 10.6668 18.6663 10.6668ZM13.333 21.3335C14.7997 21.3335 15.9997 20.1335 15.9997 18.6668C15.9997 17.2002 14.7997 16.0002 13.333 16.0002C11.8663 16.0002 10.6663 17.2002 10.6663 18.6668C10.6663 20.1335 11.8663 21.3335 13.333 21.3335ZM13.333 5.3335C11.8663 5.3335 10.6663 6.5335 10.6663 8.00016C10.6663 9.46683 11.8663 10.6668 13.333 10.6668C14.7997 10.6668 15.9997 9.46683 15.9997 8.00016C15.9997 6.5335 14.7997 5.3335 13.333 5.3335ZM18.6663 21.3335C17.1997 21.3335 15.9997 22.5335 15.9997 24.0002C15.9997 25.4668 17.1997 26.6668 18.6663 26.6668C20.133 26.6668 21.333 25.4668 21.333 24.0002C21.333 22.5335 20.133 21.3335 18.6663 21.3335ZM7.99967 26.6668C9.46634 26.6668 10.6663 25.4668 10.6663 24.0002C10.6663 22.5335 9.46634 21.3335 7.99967 21.3335C6.53301 21.3335 5.33301 22.5335 5.33301 24.0002C5.33301 25.4668 6.53301 26.6668 7.99967 26.6668Z" fill="black"/>
</svg>
