<svg width="16" height="17" viewBox="0 0 16 17" fill="none" xmlns="http://www.w3.org/2000/svg">
<g clip-path="url(#clip0_3274_15882)">
<path d="M7.99984 6.28597C9.09984 6.28597 9.99984 7.18597 9.99984 8.28597C9.99984 9.38597 9.09984 10.286 7.99984 10.286C6.89984 10.286 5.99984 9.38597 5.99984 8.28597C5.99984 7.18597 6.89984 6.28597 7.99984 6.28597ZM7.99984 4.95264C6.15984 4.95264 4.6665 6.44597 4.6665 8.28597C4.6665 10.126 6.15984 11.6193 7.99984 11.6193C9.83984 11.6193 11.3332 10.126 11.3332 8.28597C11.3332 6.44597 9.83984 4.95264 7.99984 4.95264ZM1.33317 8.95264H2.6665C3.03317 8.95264 3.33317 8.65264 3.33317 8.28597C3.33317 7.9193 3.03317 7.6193 2.6665 7.6193H1.33317C0.966504 7.6193 0.666504 7.9193 0.666504 8.28597C0.666504 8.65264 0.966504 8.95264 1.33317 8.95264ZM13.3332 8.95264H14.6665C15.0332 8.95264 15.3332 8.65264 15.3332 8.28597C15.3332 7.9193 15.0332 7.6193 14.6665 7.6193H13.3332C12.9665 7.6193 12.6665 7.9193 12.6665 8.28597C12.6665 8.65264 12.9665 8.95264 13.3332 8.95264ZM7.33317 1.6193V2.95264C7.33317 3.3193 7.63317 3.6193 7.99984 3.6193C8.3665 3.6193 8.6665 3.3193 8.6665 2.95264V1.6193C8.6665 1.25264 8.3665 0.952637 7.99984 0.952637C7.63317 0.952637 7.33317 1.25264 7.33317 1.6193ZM7.33317 13.6193V14.9526C7.33317 15.3193 7.63317 15.6193 7.99984 15.6193C8.3665 15.6193 8.6665 15.3193 8.6665 14.9526V13.6193C8.6665 13.2526 8.3665 12.9526 7.99984 12.9526C7.63317 12.9526 7.33317 13.2526 7.33317 13.6193ZM3.99317 3.3393C3.73317 3.0793 3.3065 3.0793 3.05317 3.3393C2.79317 3.5993 2.79317 4.02597 3.05317 4.2793L3.75984 4.98597C4.01984 5.24597 4.4465 5.24597 4.69984 4.98597C4.95317 4.72597 4.95984 4.2993 4.69984 4.04597L3.99317 3.3393ZM12.2398 11.586C11.9798 11.326 11.5532 11.326 11.2998 11.586C11.0398 11.846 11.0398 12.2726 11.2998 12.526L12.0065 13.2326C12.2665 13.4926 12.6932 13.4926 12.9465 13.2326C13.2065 12.9726 13.2065 12.546 12.9465 12.2926L12.2398 11.586ZM12.9465 4.2793C13.2065 4.0193 13.2065 3.59264 12.9465 3.3393C12.6865 3.0793 12.2598 3.0793 12.0065 3.3393L11.2998 4.04597C11.0398 4.30597 11.0398 4.73264 11.2998 4.98597C11.5598 5.2393 11.9865 5.24597 12.2398 4.98597L12.9465 4.2793ZM4.69984 12.526C4.95984 12.266 4.95984 11.8393 4.69984 11.586C4.43984 11.326 4.01317 11.326 3.75984 11.586L3.05317 12.2926C2.79317 12.5526 2.79317 12.9793 3.05317 13.2326C3.31317 13.486 3.73984 13.4926 3.99317 13.2326L4.69984 12.526Z" fill="black"/>
</g>
<defs>
<clipPath id="clip0_3274_15882">
<rect width="16" height="16" fill="white" transform="translate(0 0.286133)"/>
</clipPath>
</defs>
</svg>
