<svg width="19" height="25" viewBox="0 0 19 25" fill="none" xmlns="http://www.w3.org/2000/svg">
<g clip-path="url(#clip0_3274_22067)">
<path d="M3 13.2861H5V11.2861H3V13.2861ZM3 17.2861H5V15.2861H3V17.2861ZM3 9.28613H5V7.28613H3V9.28613ZM7 13.2861H21V11.2861H7V13.2861ZM7 17.2861H21V15.2861H7V17.2861ZM7 7.28613V9.28613H21V7.28613H7ZM3 13.2861H5V11.2861H3V13.2861ZM3 17.2861H5V15.2861H3V17.2861ZM3 9.28613H5V7.28613H3V9.28613ZM7 13.2861H21V11.2861H7V13.2861ZM7 17.2861H21V15.2861H7V17.2861ZM7 7.28613V9.28613H21V7.28613H7Z" fill="black"/>
</g>
<defs>
<clipPath id="clip0_3274_22067">
<rect width="24" height="24" fill="white" transform="translate(0 0.286133)"/>
</clipPath>
</defs>
</svg>
