<svg width="24" height="25" viewBox="0 0 24 25" fill="none" xmlns="http://www.w3.org/2000/svg">
<path d="M3 11.2861H11V3.28613H3V11.2861ZM5 5.28613H9V9.28613H5V5.28613Z" fill="black"/>
<path d="M3 21.2861H11V13.2861H3V21.2861ZM5 15.2861H9V19.2861H5V15.2861Z" fill="black"/>
<path d="M13 3.28613V11.2861H21V3.28613H13ZM19 9.28613H15V5.28613H19V9.28613Z" fill="black"/>
<path d="M21 19.2861H19V21.2861H21V19.2861Z" fill="black"/>
<path d="M15 13.2861H13V15.2861H15V13.2861Z" fill="black"/>
<path d="M17 15.2861H15V17.2861H17V15.2861Z" fill="black"/>
<path d="M15 17.2861H13V19.2861H15V17.2861Z" fill="black"/>
<path d="M17 19.2861H15V21.2861H17V19.2861Z" fill="black"/>
<path d="M19 17.2861H17V19.2861H19V17.2861Z" fill="black"/>
<path d="M19 13.2861H17V15.2861H19V13.2861Z" fill="black"/>
<path d="M21 15.2861H19V17.2861H21V15.2861Z" fill="black"/>
</svg>
