<svg width="32" height="33" viewBox="0 0 32 33" fill="none" xmlns="http://www.w3.org/2000/svg">
<g clip-path="url(#clip0_3274_22112)">
<path d="M21.6537 10.6329C20.0937 9.07288 18.0537 8.28621 16.0003 8.28621V16.2862L10.347 21.9395C13.467 25.0595 18.5337 25.0595 21.667 21.9395C24.787 18.8195 24.787 13.7529 21.6537 10.6329ZM16.0003 2.95288C8.64033 2.95288 2.66699 8.92621 2.66699 16.2862C2.66699 23.6462 8.64033 29.6195 16.0003 29.6195C23.3603 29.6195 29.3337 23.6462 29.3337 16.2862C29.3337 8.92621 23.3603 2.95288 16.0003 2.95288ZM16.0003 26.9529C10.107 26.9529 5.33366 22.1795 5.33366 16.2862C5.33366 10.3929 10.107 5.61955 16.0003 5.61955C21.8937 5.61955 26.667 10.3929 26.667 16.2862C26.667 22.1795 21.8937 26.9529 16.0003 26.9529Z" fill="#7622FF"/>
</g>
<defs>
<clipPath id="clip0_3274_22112">
<rect width="32" height="32" fill="white" transform="translate(0 0.286133)"/>
</clipPath>
</defs>
</svg>
