<svg width="100%" height="120" viewBox="0 0 320 120" xmlns="http://www.w3.org/2000/svg">
  <!-- 网格线 -->
  <line x1="0" y1="20" x2="320" y2="20" stroke="#eee" stroke-width="1"/>
  <line x1="0" y1="40" x2="320" y2="40" stroke="#eee" stroke-width="1"/>
  <line x1="0" y1="60" x2="320" y2="60" stroke="#eee" stroke-width="1"/>
  <line x1="0" y1="80" x2="320" y2="80" stroke="#eee" stroke-width="1"/>
  <line x1="0" y1="100" x2="320" y2="100" stroke="#eee" stroke-width="1"/>
  
  <!-- 紫色曲线 (头发健康度) -->
  <path d="M0,80 C20,78 40,75 60,70 C80,65 100,55 120,50 C140,45 160,40 180,35 C200,30 220,28 240,25 C260,22 280,20 300,20 L320,20" 
        fill="none" stroke="#8b5cf6" stroke-width="2" stroke-linecap="round"/>
  
  <!-- 紫色点 -->
  <circle cx="60" cy="70" r="3" fill="#8b5cf6"/>
  <circle cx="120" cy="50" r="3" fill="#8b5cf6"/>
  <circle cx="180" cy="35" r="3" fill="#8b5cf6"/>
  <circle cx="240" cy="25" r="3" fill="#8b5cf6"/>
  <circle cx="300" cy="20" r="3" fill="#8b5cf6"/>
</svg> 