<svg width="100%" height="32" xmlns="http://www.w3.org/2000/svg">
  <g>
    <rect x="0" y="12" width="3" height="8" fill="#8b5cf6" rx="1.5"/>
    <rect x="6" y="8" width="3" height="16" fill="#8b5cf6" rx="1.5"/>
    <rect x="12" y="4" width="3" height="24" fill="#8b5cf6" rx="1.5"/>
    <rect x="18" y="0" width="3" height="32" fill="#8b5cf6" rx="1.5"/>
    <rect x="24" y="4" width="3" height="24" fill="#8b5cf6" rx="1.5"/>
    <rect x="30" y="0" width="3" height="32" fill="#8b5cf6" rx="1.5"/>
    <rect x="36" y="4" width="3" height="24" fill="#8b5cf6" rx="1.5"/>
    <rect x="42" y="0" width="3" height="32" fill="#8b5cf6" rx="1.5"/>
    <rect x="48" y="8" width="3" height="16" fill="#8b5cf6" rx="1.5"/>
    <rect x="54" y="12" width="3" height="8" fill="#8b5cf6" rx="1.5"/>
    <rect x="60" y="8" width="3" height="16" fill="#8b5cf6" rx="1.5"/>
    <rect x="66" y="4" width="3" height="24" fill="#8b5cf6" rx="1.5"/>
    <rect x="72" y="0" width="3" height="32" fill="#8b5cf6" rx="1.5"/>
    <rect x="78" y="4" width="3" height="24" fill="#8b5cf6" rx="1.5"/>
    <rect x="84" y="8" width="3" height="16" fill="#8b5cf6" rx="1.5"/>
    <rect x="90" y="12" width="3" height="8" fill="#8b5cf6" rx="1.5"/>
  </g>
</svg> 