<svg width="266" height="58" viewBox="0 0 266 58" fill="none" xmlns="http://www.w3.org/2000/svg">
<path d="M260.59 55.6331C255.806 55.6331 253.592 53.7049 251.521 49.4913L244.093 34.494C243.093 32.4943 242.236 32.3515 239.451 32.3515H237.095V47.1346C237.095 53.2764 237.237 53.2764 243.165 53.7763V55.1332H224.097V53.7763C230.024 53.2764 230.167 53.2764 230.167 47.1346V10.2839C230.167 4.14215 230.024 4.14215 224.097 3.64224V2.28534H243.093C254.377 2.28534 259.805 7.57012 259.805 16.14C259.805 23.3531 255.948 28.7093 249.235 31.066L256.377 44.4922C259.519 50.4197 261.305 53.205 265.875 53.7763V55.1332C264.161 55.4189 262.162 55.6331 260.59 55.6331ZM237.095 30.4233H239.737C247.95 30.4233 252.378 26.9953 252.378 18.1397C252.378 11.1409 249.878 3.85649 240.88 3.85649C237.237 3.85649 237.095 4.14215 237.095 9.78402V30.4233Z" fill="black"/>
<path d="M207.945 47.1346V10.2839C207.945 4.14215 207.802 4.14215 201.875 3.64224V2.28534H220.872V3.64224C214.944 4.07074 214.873 4.14215 214.873 10.2839V47.1346C214.873 53.2764 215.015 53.2764 220.943 53.7763V55.1332H201.946V53.7763C207.874 53.3478 207.945 53.2764 207.945 47.1346Z" fill="black"/>
<path d="M170.106 53.7763V55.1332H156.109V53.7763C160.465 53.4193 162.036 51.7767 163.965 45.7063L178.176 0.857056H180.033L193.959 47.1346C195.816 53.205 195.816 53.2764 200.315 53.7763V55.1332H182.39V53.7763C187.746 53.3478 188.389 52.9908 186.675 47.1346L184.39 39.2789H168.392L166.464 45.7063C164.679 51.5624 165.179 53.3478 170.106 53.7763ZM168.964 37.4935H183.818L176.534 12.5693L168.964 37.4935Z" fill="black"/>
<path d="M127.889 53.7763V55.1332H108.892V53.7763C114.82 53.3478 114.891 53.2764 114.891 47.1346V10.2839C114.891 4.14215 114.748 4.14215 108.821 3.64224V2.28534H127.817V3.64224C121.89 4.07074 121.819 4.14215 121.819 10.2839V30.0662H143.815V10.2839C143.815 4.14215 143.672 4.14215 137.744 3.64224V2.28534H156.741V3.64224C150.813 4.07074 150.742 4.14215 150.742 10.2839V47.1346C150.742 53.2764 150.885 53.2764 156.812 53.7763V55.1332H137.816V53.7763C143.743 53.3478 143.815 53.2764 143.815 47.1346V32.0658H121.819V47.1346C121.819 53.2764 121.961 53.2764 127.889 53.7763Z" fill="black"/>
<path d="M89.8485 55.8473C85.0636 55.8473 82.9212 54.1333 81.5643 54.1333C80.5644 54.1333 79.7074 54.8475 79.0647 57.1328H77.4936L76.3509 39.136L77.922 38.7075C80.2788 48.6343 84.2781 53.3478 90.3484 53.3478C95.5618 53.3478 99.2754 49.777 99.2754 44.7064C99.2754 31.9944 76.8508 31.3516 76.8508 15.9258C76.8508 7.64151 83.064 1.57115 90.7769 1.57115C94.2049 1.57115 96.0617 2.71381 97.2044 2.71381C98.347 2.71381 98.9898 2.07106 99.3469 0.142829L100.918 0L102.489 16.7828L100.918 17.2113C98.4184 8.42709 94.7762 4.07071 89.8485 4.07071C85.7778 4.07071 82.7069 7.92718 82.7069 12.6406C82.7069 25.1384 104.917 25.1384 104.917 41.5641C104.917 50.0626 98.6327 55.8473 89.8485 55.8473Z" fill="black"/>
<path d="M66.2954 36.9323V12.2223C66.2954 6.50904 64.8671 4.50939 60.2964 4.15231V2.79541H74.8653V4.15231C70.2947 4.58081 68.7949 6.58046 68.7949 12.2223V37.0751C68.7949 50.0014 63.0103 56.3574 53.3691 56.3574C43.8708 56.3574 37.9432 50.0014 37.9432 39.0747V10.794C37.9432 4.65222 37.8004 4.65222 31.8729 4.15231V2.79541H50.8695V4.15231C44.942 4.58081 44.8706 4.65222 44.8706 10.794V36.3609C44.8706 47.2162 48.0843 53.8579 55.2973 53.8579C62.4389 53.8579 66.2954 47.359 66.2954 36.9323Z" fill="black"/>
<path d="M33.4479 42.217L30.6627 58L29.163 57.7857C28.5916 56.1432 27.7346 55.6433 25.6636 55.6433H0.525146V54.2864C6.45268 53.7864 6.59551 53.7864 6.59551 47.6447V10.794C6.59551 4.65222 6.45268 4.65222 0.525146 4.15231V2.79541H19.5932V4.15231C13.6657 4.65222 13.5229 4.65222 13.5229 10.794V48.3588C13.5229 54.0007 14.3084 54.0007 19.5218 54.0007C25.6636 54.0007 28.7345 50.7155 31.8768 41.86L33.4479 42.217Z" fill="black"/>
</svg>
