<svg width="32" height="33" viewBox="0 0 32 33" fill="none" xmlns="http://www.w3.org/2000/svg">
<g clip-path="url(#clip0_3274_22107)">
<path d="M7.99967 17.6194C7.26634 17.6194 6.66634 18.2194 6.66634 18.9527C6.66634 19.6861 7.26634 20.2861 7.99967 20.2861C8.73301 20.2861 9.33301 19.6861 9.33301 18.9527C9.33301 18.2194 8.73301 17.6194 7.99967 17.6194ZM7.99967 22.9527C7.26634 22.9527 6.66634 23.5527 6.66634 24.2861C6.66634 25.0194 7.26634 25.6194 7.99967 25.6194C8.73301 25.6194 9.33301 25.0194 9.33301 24.2861C9.33301 23.5527 8.73301 22.9527 7.99967 22.9527ZM7.99967 12.2861C7.26634 12.2861 6.66634 12.8861 6.66634 13.6194C6.66634 14.3527 7.26634 14.9527 7.99967 14.9527C8.73301 14.9527 9.33301 14.3527 9.33301 13.6194C9.33301 12.8861 8.73301 12.2861 7.99967 12.2861ZM3.99967 12.9527C3.62634 12.9527 3.33301 13.2461 3.33301 13.6194C3.33301 13.9927 3.62634 14.2861 3.99967 14.2861C4.37301 14.2861 4.66634 13.9927 4.66634 13.6194C4.66634 13.2461 4.37301 12.9527 3.99967 12.9527ZM7.99967 6.95272C7.26634 6.95272 6.66634 7.55272 6.66634 8.28605C6.66634 9.01938 7.26634 9.61938 7.99967 9.61938C8.73301 9.61938 9.33301 9.01938 9.33301 8.28605C9.33301 7.55272 8.73301 6.95272 7.99967 6.95272ZM27.9997 14.2861C28.373 14.2861 28.6663 13.9927 28.6663 13.6194C28.6663 13.2461 28.373 12.9527 27.9997 12.9527C27.6263 12.9527 27.333 13.2461 27.333 13.6194C27.333 13.9927 27.6263 14.2861 27.9997 14.2861ZM18.6663 9.61938C19.3997 9.61938 19.9997 9.01938 19.9997 8.28605C19.9997 7.55272 19.3997 6.95272 18.6663 6.95272C17.933 6.95272 17.333 7.55272 17.333 8.28605C17.333 9.01938 17.933 9.61938 18.6663 9.61938ZM18.6663 4.95272C19.0397 4.95272 19.333 4.65938 19.333 4.28605C19.333 3.91272 19.0397 3.61938 18.6663 3.61938C18.293 3.61938 17.9997 3.91272 17.9997 4.28605C17.9997 4.65938 18.293 4.95272 18.6663 4.95272ZM3.99967 18.2861C3.62634 18.2861 3.33301 18.5794 3.33301 18.9527C3.33301 19.3261 3.62634 19.6194 3.99967 19.6194C4.37301 19.6194 4.66634 19.3261 4.66634 18.9527C4.66634 18.5794 4.37301 18.2861 3.99967 18.2861ZM13.333 27.6194C12.9597 27.6194 12.6663 27.9127 12.6663 28.2861C12.6663 28.6594 12.9597 28.9527 13.333 28.9527C13.7063 28.9527 13.9997 28.6594 13.9997 28.2861C13.9997 27.9127 13.7063 27.6194 13.333 27.6194ZM13.333 4.95272C13.7063 4.95272 13.9997 4.65938 13.9997 4.28605C13.9997 3.91272 13.7063 3.61938 13.333 3.61938C12.9597 3.61938 12.6663 3.91272 12.6663 4.28605C12.6663 4.65938 12.9597 4.95272 13.333 4.95272ZM13.333 9.61938C14.0663 9.61938 14.6663 9.01938 14.6663 8.28605C14.6663 7.55272 14.0663 6.95272 13.333 6.95272C12.5997 6.95272 11.9997 7.55272 11.9997 8.28605C11.9997 9.01938 12.5997 9.61938 13.333 9.61938ZM13.333 16.9527C12.2263 16.9527 11.333 17.8461 11.333 18.9527C11.333 20.0594 12.2263 20.9527 13.333 20.9527C14.4397 20.9527 15.333 20.0594 15.333 18.9527C15.333 17.8461 14.4397 16.9527 13.333 16.9527ZM23.9997 17.6194C23.2663 17.6194 22.6663 18.2194 22.6663 18.9527C22.6663 19.6861 23.2663 20.2861 23.9997 20.2861C24.733 20.2861 25.333 19.6861 25.333 18.9527C25.333 18.2194 24.733 17.6194 23.9997 17.6194ZM23.9997 22.9527C23.2663 22.9527 22.6663 23.5527 22.6663 24.2861C22.6663 25.0194 23.2663 25.6194 23.9997 25.6194C24.733 25.6194 25.333 25.0194 25.333 24.2861C25.333 23.5527 24.733 22.9527 23.9997 22.9527ZM23.9997 12.2861C23.2663 12.2861 22.6663 12.8861 22.6663 13.6194C22.6663 14.3527 23.2663 14.9527 23.9997 14.9527C24.733 14.9527 25.333 14.3527 25.333 13.6194C25.333 12.8861 24.733 12.2861 23.9997 12.2861ZM23.9997 6.95272C23.2663 6.95272 22.6663 7.55272 22.6663 8.28605C22.6663 9.01938 23.2663 9.61938 23.9997 9.61938C24.733 9.61938 25.333 9.01938 25.333 8.28605C25.333 7.55272 24.733 6.95272 23.9997 6.95272ZM27.9997 18.2861C27.6263 18.2861 27.333 18.5794 27.333 18.9527C27.333 19.3261 27.6263 19.6194 27.9997 19.6194C28.373 19.6194 28.6663 19.3261 28.6663 18.9527C28.6663 18.5794 28.373 18.2861 27.9997 18.2861ZM18.6663 22.9527C17.933 22.9527 17.333 23.5527 17.333 24.2861C17.333 25.0194 17.933 25.6194 18.6663 25.6194C19.3997 25.6194 19.9997 25.0194 19.9997 24.2861C19.9997 23.5527 19.3997 22.9527 18.6663 22.9527ZM18.6663 27.6194C18.293 27.6194 17.9997 27.9127 17.9997 28.2861C17.9997 28.6594 18.293 28.9527 18.6663 28.9527C19.0397 28.9527 19.333 28.6594 19.333 28.2861C19.333 27.9127 19.0397 27.6194 18.6663 27.6194ZM13.333 11.6194C12.2263 11.6194 11.333 12.5127 11.333 13.6194C11.333 14.7261 12.2263 15.6194 13.333 15.6194C14.4397 15.6194 15.333 14.7261 15.333 13.6194C15.333 12.5127 14.4397 11.6194 13.333 11.6194ZM13.333 22.9527C12.5997 22.9527 11.9997 23.5527 11.9997 24.2861C11.9997 25.0194 12.5997 25.6194 13.333 25.6194C14.0663 25.6194 14.6663 25.0194 14.6663 24.2861C14.6663 23.5527 14.0663 22.9527 13.333 22.9527ZM18.6663 16.9527C17.5597 16.9527 16.6663 17.8461 16.6663 18.9527C16.6663 20.0594 17.5597 20.9527 18.6663 20.9527C19.773 20.9527 20.6663 20.0594 20.6663 18.9527C20.6663 17.8461 19.773 16.9527 18.6663 16.9527ZM18.6663 11.6194C17.5597 11.6194 16.6663 12.5127 16.6663 13.6194C16.6663 14.7261 17.5597 15.6194 18.6663 15.6194C19.773 15.6194 20.6663 14.7261 20.6663 13.6194C20.6663 12.5127 19.773 11.6194 18.6663 11.6194Z" fill="#9FDDF2"/>
</g>
<defs>
<clipPath id="clip0_3274_22107">
<rect width="32" height="32" fill="white" transform="translate(0 0.286133)"/>
</clipPath>
</defs>
</svg>
