<svg width="32" height="32" viewBox="0 0 32 32" fill="none" xmlns="http://www.w3.org/2000/svg">
<path d="M16.0003 4C11.3337 4 6.66699 12.44 6.66699 18.6667C6.66699 23.8267 10.8403 28 16.0003 28C21.1603 28 25.3337 23.8267 25.3337 18.6667C25.3337 12.44 20.667 4 16.0003 4ZM17.3337 24C13.3337 24 10.667 21.3467 10.667 17.3333C10.667 16.6 10.667 16 10.667 16H13.3337V17.3333C13.3337 21.2267 16.5603 21.3333 17.3337 21.3333C18.067 21.3333 18.667 21.3333 18.667 21.3333V24C18.667 24 18.067 24 17.3337 24Z" fill="black"/>
</svg>
