<svg width="24" height="24" viewBox="0 0 24 24" fill="none" xmlns="http://www.w3.org/2000/svg">
<path d="M21.5 17.5003C20.472 17.5003 19.8711 17.7554 19.4277 18.0842C18.9308 18.4529 18.5785 18.9405 18.0449 19.6184C17.5393 20.2608 16.9081 21.0135 15.9355 21.5823C14.9512 22.1578 13.7001 22.5003 12 22.5003C10.2989 22.5003 9.02308 22.1574 8.00684 21.593C7.0004 21.034 6.32038 20.295 5.77246 19.6438C5.19195 18.9539 4.82318 18.456 4.32715 18.0725C3.89382 17.7376 3.36184 17.5003 2.5 17.5003V15.5003C3.80949 15.5003 4.77022 15.888 5.5498 16.4905C6.26653 17.0445 6.83161 17.7968 7.30273 18.3567C7.80641 18.9553 8.29741 19.4667 8.97852 19.845C9.65016 20.2179 10.5801 20.5003 12 20.5003C13.4208 20.5003 14.3071 20.2174 14.9258 19.8557C15.5561 19.4871 15.9955 18.9896 16.4736 18.3821C16.9236 17.8104 17.4699 17.0475 18.2363 16.4788C19.0568 15.8701 20.0852 15.5003 21.5 15.5003V17.5003ZM19.8535 1.50905C20.09 1.45861 20.3209 1.61852 20.3691 1.86647C20.4041 2.04598 20.3341 2.22269 20.2031 2.32546V2.32643C18.0719 3.9942 16.5788 5.37622 15.6318 7.32936C14.6786 9.29569 14.252 11.883 14.252 15.9729C14.2518 17.182 13.6129 17.9594 12.7949 18.303C12.4828 18.4339 12.1476 18.5003 11.8154 18.5003C11.4832 18.5002 11.1471 18.4339 10.835 18.303C10.0178 17.9605 9.37908 17.183 9.37891 15.9729C9.37891 11.7284 10.2725 8.49129 12.0312 6.1194C13.7957 3.7398 16.4129 2.25165 19.8535 1.50905Z" fill="black"/>
</svg>
