<svg width="24" height="24" viewBox="0 0 24 24" fill="none" xmlns="http://www.w3.org/2000/svg">
<path fill-rule="evenodd" clip-rule="evenodd" d="M16.2331 10.5058H22V12.5966H15.2449C14.944 12.5966 14.6692 12.7964 14.5639 13.09C14.5385 13.1669 14.524 13.29 14.549 13.4615L15.2868 18.3349L15.3203 18.5497C15.4547 19.6252 15.1247 20.7122 14.3964 21.4696C13.7562 22.1341 12.9049 22.4999 12.0005 22.5C11.0963 22.5 10.2441 22.1345 9.60456 21.4696L9.60363 21.4686C8.82682 20.6571 8.50448 19.4755 8.71691 18.3155L9.45197 13.4557L9.4529 13.4509L9.46499 13.3358C9.47029 13.2294 9.45704 13.1451 9.43708 13.0871L9.38963 12.9817C9.26232 12.7471 9.01909 12.5948 8.75599 12.5947H2V10.5039H8.75506C9.89277 10.504 10.9239 11.2453 11.3212 12.3557L11.3752 12.524C11.4875 12.9217 11.5047 13.3463 11.4403 13.7789L10.6997 18.6725L10.6978 18.6803L10.6969 18.688C10.6008 19.2154 10.7432 19.6871 11.0291 19.9864L11.1305 20.0822C11.3756 20.2917 11.6791 20.4053 12.0014 20.4053C12.3699 20.4053 12.7144 20.257 12.9746 19.9864C13.2618 19.6856 13.4023 19.2125 13.3096 18.7035L13.3077 18.6958L13.3068 18.689L12.5634 13.7769C12.4883 13.2808 12.5231 12.7964 12.6825 12.3518L12.6834 12.3508L12.7653 12.1477C13.2108 11.1542 14.1823 10.5 15.2496 10.5H16.2377L16.2331 10.5058Z" fill="black"/>
<path d="M12 9.5C13.6535 9.5 15 8.30314 15 6.83337C15 5.57505 12.9328 2.38758 12.5156 1.76145C12.4078 1.59896 12.2098 1.5 12 1.5C11.7902 1.5 11.5922 1.59896 11.4844 1.76145C11.0707 2.38854 9 5.57179 9 6.83337C9 8.30314 10.3465 9.5 12 9.5Z" fill="black"/>
</svg>
