<svg width="24" height="24" viewBox="0 0 24 24" fill="none" xmlns="http://www.w3.org/2000/svg">
<path fill-rule="evenodd" clip-rule="evenodd" d="M6.04243 12C8.1898 12.7143 9.37419 12.8134 12.3158 12C11.859 13.8474 11.6459 16.1128 11.6459 19.0265C11.6459 20.4493 10.7748 21.3639 9.65924 21.7682C9.23348 21.9223 8.77645 22 8.32334 22C7.87023 22 7.41243 21.923 6.98666 21.7689C5.87185 21.366 5 20.4507 5 19.0265C5 16.353 5.34956 14.0195 6.04243 12Z" fill="#7622FF"/>
<path d="M6.70508 13.2461C7.42779 13.4421 8.11476 13.5632 8.86816 13.5732C9.53709 13.5821 10.2316 13.5034 11.0254 13.3428C10.765 14.9603 10.6455 16.827 10.6455 19.0264C10.6455 19.8893 10.1843 20.4618 9.46582 20.7695L9.31836 20.8281C9.0052 20.9414 8.66369 21 8.32324 21C7.98137 21 7.6393 20.9411 7.32715 20.8281H7.32617C6.52623 20.5389 6 19.9486 6 19.0264C6.00001 16.8468 6.24121 14.9285 6.70508 13.2461ZM17.2803 3.49316C15.2981 4.96283 13.7416 6.43516 12.6553 8.36816C12.1797 9.21458 11.7981 10.1411 11.5 11.1816C10.3679 11.4699 9.58155 11.5824 8.89453 11.5732C8.39231 11.5666 7.91582 11.4942 7.36426 11.3525C7.88865 10.1224 8.55876 9.03777 9.37598 8.08691C11.2156 5.94641 13.8313 4.43074 17.2803 3.49316Z" stroke="#7622FF" stroke-width="2"/>
</svg>
