<svg width="24" height="24" viewBox="0 0 24 24" fill="none" xmlns="http://www.w3.org/2000/svg">
<path d="M10.9998 4.0698V2.0498C8.9898 2.2498 7.1598 3.0498 5.6798 4.2598L7.0998 5.6898C8.20981 4.8298 9.5398 4.2498 10.9998 4.0698ZM18.3198 4.2598C16.8398 3.0498 15.0098 2.2498 12.9998 2.0498V4.0698C14.4598 4.2498 15.7898 4.8298 16.8998 5.6898L18.3198 4.2598ZM19.9298 10.9998H21.9498C21.7498 8.9898 20.9498 7.1598 19.7398 5.6798L18.3098 7.0998C19.1698 8.20981 19.7498 9.5398 19.9298 10.9998ZM5.6898 7.0998L4.2598 5.6798C3.0498 7.1598 2.2498 8.9898 2.0498 10.9998H4.0698C4.2498 9.5398 4.8298 8.20981 5.6898 7.0998ZM4.0698 12.9998H2.0498C2.2498 15.0098 3.0498 16.8398 4.2598 18.3198L5.6898 16.8898C4.8298 15.7898 4.2498 14.4598 4.0698 12.9998ZM18.3098 16.8998L19.7398 18.3298C20.9498 16.8498 21.7498 15.0098 21.9498 13.0098H19.9298C19.7498 14.4598 19.1698 15.7898 18.3098 16.8998ZM12.9998 19.9298V21.9498C15.0098 21.7498 16.8398 20.9498 18.3198 19.7398L16.8898 18.3098C15.7898 19.1698 14.4598 19.7498 12.9998 19.9298ZM5.6798 19.7398C7.1598 20.9498 8.9998 21.7498 10.9998 21.9498V19.9298C9.5398 19.7498 8.20981 19.1698 7.0998 18.3098L5.6798 19.7398Z" fill="#7622FF"/>
<path d="M10.8639 15.9073C11.3101 15.7456 11.6585 15.3797 11.6585 14.8106C11.6585 12.8858 11.891 11.6684 12.411 10.7431C12.9276 9.82397 13.7419 9.17343 14.9044 8.3886C14.9759 8.34025 15.0144 8.25713 14.9953 8.1726C14.9691 8.05583 14.8431 7.98063 14.7141 8.00438C12.8373 8.35382 11.4098 9.05412 10.4473 10.174C9.48797 11.2902 9.00017 12.8132 9.00017 14.8106C9.00017 15.3803 9.34891 15.7464 9.79484 15.9075C9.96514 15.9692 10.1483 16 10.3295 16C10.5108 16 10.6936 15.9689 10.8639 15.9073Z" fill="#7622FF"/>
</svg>
