<svg width="32" height="32" viewBox="0 0 32 32" fill="none" xmlns="http://www.w3.org/2000/svg">
<path d="M26.667 18.6665C28.1398 18.6665 29.3337 17.4726 29.3337 15.9998C29.3337 14.5271 28.1398 13.3332 26.667 13.3332C25.1942 13.3332 24.0003 14.5271 24.0003 15.9998C24.0003 17.4726 25.1942 18.6665 26.667 18.6665Z" fill="black"/>
<path d="M5.33366 18.6665C6.80642 18.6665 8.00033 17.4726 8.00033 15.9998C8.00033 14.5271 6.80642 13.3332 5.33366 13.3332C3.8609 13.3332 2.66699 14.5271 2.66699 15.9998C2.66699 17.4726 3.8609 18.6665 5.33366 18.6665Z" fill="black"/>
<path d="M16.0003 29.3332C17.4731 29.3332 18.667 28.1393 18.667 26.6665C18.667 25.1937 17.4731 23.9998 16.0003 23.9998C14.5276 23.9998 13.3337 25.1937 13.3337 26.6665C13.3337 28.1393 14.5276 29.3332 16.0003 29.3332Z" fill="black"/>
<path d="M13.4003 11.4532L8.04033 6.0665H8.02699L7.61366 5.63984L5.72033 7.51984L11.0803 12.9198L11.0937 12.9065L11.507 13.3332L13.4003 11.4532ZM18.591 11.4892L24.4643 5.63317L26.347 7.51984L20.4737 13.3772L18.591 11.4892ZM13.347 20.4798L11.4537 18.5998L6.08033 23.9465L5.65366 24.3865L7.53366 26.2665L12.907 20.9065L13.347 20.4798ZM26.347 24.3998L21.027 19.0532L20.547 18.5865L18.667 20.4665L23.987 25.8132L24.4537 26.2798L26.347 24.3998Z" fill="black"/>
<path d="M16.0003 7.99984C17.4731 7.99984 18.667 6.80593 18.667 5.33317C18.667 3.86041 17.4731 2.6665 16.0003 2.6665C14.5276 2.6665 13.3337 3.86041 13.3337 5.33317C13.3337 6.80593 14.5276 7.99984 16.0003 7.99984Z" fill="black"/>
</svg>
