<svg width="32" height="33" viewBox="0 0 32 33" fill="none" xmlns="http://www.w3.org/2000/svg">
<g clip-path="url(#clip0_3274_22343)">
<path d="M21.6537 10.6326C20.0937 9.07264 18.0537 8.28597 16.0003 8.28597V16.286L10.347 21.9393C13.467 25.0593 18.5337 25.0593 21.667 21.9393C24.787 18.8193 24.787 13.7526 21.6537 10.6326ZM16.0003 2.95264C8.64033 2.95264 2.66699 8.92597 2.66699 16.286C2.66699 23.646 8.64033 29.6193 16.0003 29.6193C23.3603 29.6193 29.3337 23.646 29.3337 16.286C29.3337 8.92597 23.3603 2.95264 16.0003 2.95264ZM16.0003 26.9526C10.107 26.9526 5.33366 22.1793 5.33366 16.286C5.33366 10.3926 10.107 5.6193 16.0003 5.6193C21.8937 5.6193 26.667 10.3926 26.667 16.286C26.667 22.1793 21.8937 26.9526 16.0003 26.9526Z" fill="white"/>
</g>
<defs>
<clipPath id="clip0_3274_22343">
<rect width="32" height="32" fill="white" transform="translate(0 0.286133)"/>
</clipPath>
</defs>
</svg>
