<svg width="24" height="25" viewBox="0 0 24 25" fill="none" xmlns="http://www.w3.org/2000/svg">
<g clip-path="url(#clip0_3921_1534)">
<rect x="0.0078125" y="0.5" width="24" height="24" fill="black" fill-opacity="0.01"/>
<mask id="mask0_3921_1534" style="mask-type:luminance" maskUnits="userSpaceOnUse" x="0" y="0" width="25" height="25">
<rect x="0.0078125" y="0.5" width="24" height="24" fill="white"/>
</mask>
<g mask="url(#mask0_3921_1534)">
</g>
<g clip-path="url(#clip1_3921_1534)">
<mask id="mask1_3921_1534" style="mask-type:luminance" maskUnits="userSpaceOnUse" x="0" y="0" width="25" height="25">
<rect x="0.0078125" y="0.5" width="24" height="24" fill="white"/>
</mask>
<g mask="url(#mask1_3921_1534)">
<path d="M8.10248 10.0947L7.57215 9.56434L8.10248 10.0947ZM9.16303 11.1552L8.6327 10.6249L9.16303 11.1552ZM4.28803 16.0302L3.7577 15.4999L4.28803 16.0302ZM3.22748 14.9697L2.69715 14.4393L3.22748 14.9697ZM19.7275 8.96967L19.1972 8.43934L19.7275 8.96967ZM20.788 10.0302L20.2577 9.49989L20.788 10.0302ZM16.663 14.1552L16.1327 13.6249L16.663 14.1552ZM11.3564 10.0429L11.8623 9.48925L11.8468 9.47506L11.8305 9.46176L11.3564 10.0429ZM11.413 10.0947L11.9434 9.56434L11.9314 9.5524L11.919 9.54101L11.413 10.0947ZM14.413 13.0947L14.9667 12.5887L14.9553 12.5763L14.9434 12.5643L14.413 13.0947ZM14.4648 13.1513L15.0459 12.6772L15.0326 12.6609L15.0184 12.6454L14.4648 13.1513ZM13.4091 14.207L12.9032 14.7606L12.9187 14.7748L12.935 14.7881L13.4091 14.207ZM13.3525 14.1552L12.8222 14.6855L12.8341 14.6975L12.8466 14.7089L13.3525 14.1552ZM10.3525 11.1552L9.79882 11.6611L9.81021 11.6736L9.82215 11.6855L10.3525 11.1552ZM10.3007 11.0986L9.71957 11.5727L9.73287 11.589L9.74707 11.6045L10.3007 11.0986ZM8.10248 10.0947L8.63281 10.625H8.6327L9.16303 10.0947L9.69336 9.56434C9.10757 8.97855 8.15794 8.97855 7.57215 9.56434L8.10248 10.0947ZM9.16303 10.0947L8.6327 10.625V10.6249L9.16303 11.1552L9.69336 11.6855C10.2791 11.0998 10.2791 10.1501 9.69336 9.56434L9.16303 10.0947ZM9.16303 11.1552L8.6327 10.6249L3.7577 15.4999L4.28803 16.0302L4.81836 16.5605L9.69336 11.6855L9.16303 11.1552ZM4.28803 16.0302L3.7577 15.4999H3.75781L3.22748 16.0302L2.69715 16.5605C3.28294 17.1463 4.23257 17.1463 4.81836 16.5605L4.28803 16.0302ZM3.22748 16.0302L3.75781 15.4999V15.5L3.22748 14.9697L2.69715 14.4393C2.11137 15.0251 2.11137 15.9748 2.69715 16.5605L3.22748 16.0302ZM3.22748 14.9697L3.75781 15.5L8.63281 10.625L8.10248 10.0947L7.57215 9.56434L2.69715 14.4393L3.22748 14.9697ZM19.7275 8.96967L20.2578 9.5H20.2577L20.788 8.96967L21.3184 8.43934C20.7326 7.85355 19.7829 7.85355 19.1972 8.43934L19.7275 8.96967ZM20.788 8.96967L20.2577 9.5V9.49989L20.788 10.0302L21.3184 10.5605C21.9041 9.97476 21.9041 9.02513 21.3184 8.43934L20.788 8.96967ZM20.788 10.0302L20.2577 9.49989L16.1327 13.6249L16.663 14.1552L17.1934 14.6855L21.3184 10.5605L20.788 10.0302ZM16.663 14.1552L16.1327 13.6249H16.1328L15.6025 14.1552L15.0722 14.6855C15.6579 15.2713 16.6076 15.2713 17.1934 14.6855L16.663 14.1552ZM15.6025 14.1552L16.1328 13.6249V13.625L15.6025 13.0947L15.0722 12.5643C14.4864 13.1501 14.4864 14.0998 15.0722 14.6855L15.6025 14.1552ZM15.6025 13.0947L16.1328 13.625L20.2578 9.5L19.7275 8.96967L19.1972 8.43934L15.0722 12.5643L15.6025 13.0947ZM10.3525 10.0947L10.8828 10.625C10.8838 10.624 10.8836 10.6244 10.8827 10.6248C10.8822 10.625 10.8823 10.6249 10.883 10.6248C10.8837 10.6248 10.8841 10.6249 10.8838 10.6249C10.8836 10.6248 10.8833 10.6247 10.8829 10.6245C10.8825 10.6242 10.8823 10.624 10.8823 10.6241L11.3564 10.0429L11.8305 9.46176C11.2402 8.98026 10.3713 9.01521 9.82215 9.56434L10.3525 10.0947ZM11.3564 10.0429L10.8505 10.5966L10.9071 10.6483L11.413 10.0947L11.919 9.54101L11.8623 9.48925L11.3564 10.0429ZM11.413 10.0947L10.8827 10.625L13.8827 13.625L14.413 13.0947L14.9434 12.5643L11.9434 9.56434L11.413 10.0947ZM14.413 13.0947L13.8594 13.6006L13.9111 13.6572L14.4648 13.1513L15.0184 12.6454L14.9667 12.5887L14.413 13.0947ZM14.4648 13.1513L13.8836 13.6254C13.8837 13.6254 13.8835 13.6252 13.8832 13.6248C13.883 13.6244 13.8829 13.6241 13.8828 13.6239C13.8828 13.6236 13.8829 13.624 13.8829 13.6247C13.8828 13.6254 13.8827 13.6255 13.8829 13.625C13.8833 13.6241 13.8837 13.6239 13.8827 13.6249L14.413 14.1552L14.9434 14.6855C15.4925 14.1364 15.5274 13.2675 15.0459 12.6772L14.4648 13.1513ZM14.413 14.1552L13.8827 13.6249C13.8817 13.6259 13.8819 13.6255 13.8828 13.6251C13.8833 13.6249 13.8832 13.625 13.8825 13.6251C13.8818 13.6251 13.8814 13.625 13.8817 13.625C13.8819 13.6251 13.8822 13.6252 13.8826 13.6254C13.883 13.6257 13.8832 13.6258 13.8832 13.6258L13.4091 14.207L12.935 14.7881C13.5253 15.2696 14.3942 15.2347 14.9434 14.6855L14.413 14.1552ZM13.4091 14.207L13.9151 13.6533L13.8584 13.6016L13.3525 14.1552L12.8466 14.7089L12.9032 14.7606L13.4091 14.207ZM13.3525 14.1552L13.8828 13.6249L10.8828 10.6249L10.3525 11.1552L9.82215 11.6855L12.8222 14.6855L13.3525 14.1552ZM10.3525 11.1552L10.9061 10.6493L10.8544 10.5926L10.3007 11.0986L9.74707 11.6045L9.79882 11.6611L10.3525 11.1552ZM10.3007 11.0986L10.8819 10.6245C10.8819 10.6245 10.882 10.6247 10.8823 10.6251C10.8825 10.6255 10.8826 10.6258 10.8827 10.626C10.8827 10.6263 10.8826 10.6259 10.8826 10.6252C10.8827 10.6245 10.8828 10.6244 10.8826 10.6249C10.8822 10.6258 10.8818 10.626 10.8828 10.625L10.3525 10.0947L9.82215 9.56434C9.27302 10.1135 9.23808 10.9824 9.71957 11.5727L10.3007 11.0986Z" fill="#9CA3AF"/>
<circle cx="21.3828" cy="8.375" r="1.125" stroke="#9CA3AF" stroke-width="1.5"/>
<circle cx="15.0078" cy="14.75" r="1.125" stroke="#9CA3AF" stroke-width="1.5"/>
<circle cx="9.75781" cy="9.5" r="1.125" stroke="#9CA3AF" stroke-width="1.5"/>
<circle cx="2.63281" cy="16.625" r="1.125" stroke="#9CA3AF" stroke-width="1.5"/>
</g>
</g>
</g>
<defs>
<clipPath id="clip0_3921_1534">
<rect width="24" height="24" fill="white" transform="translate(0.0078125 0.5)"/>
</clipPath>
<clipPath id="clip1_3921_1534">
<rect width="24" height="24" fill="white" transform="translate(0.0078125 0.5)"/>
</clipPath>
</defs>
</svg>
